<?xml version="1.0" standalone="no"?>
<!DOCTYPE svg PUBLIC "-//W3C//DTD SVG 20010904//EN"
 "http://www.w3.org/TR/2001/REC-SVG-20010904/DTD/svg10.dtd">
<svg version="1.0" xmlns="http://www.w3.org/2000/svg"
 width="16.000000pt" height="16.000000pt" viewBox="0 0 16.000000 16.000000"
 preserveAspectRatio="xMidYMid meet">
<metadata>
Created by potrace 1.11, written by Peter Selinger 2001-2013
</metadata>
<g transform="translate(0.000000,16.000000) scale(0.010000,-0.010000)"
fill="#000000" stroke="none">
<path d="M144 1592 c8 -13 85 -46 92 -40 3 4 -1 15 -8 27 -9 15 -23 21 -51 21
-21 0 -36 -4 -33 -8z"/>
<path d="M240 1584 c0 -9 17 -33 38 -54 53 -53 125 -68 186 -39 49 22 80 53
91 87 l6 22 -160 0 c-142 0 -161 -2 -161 -16z"/>
<path d="M783 1559 c5 -40 5 -40 -24 -34 -16 4 -29 2 -29 -3 0 -5 -15 -12 -32
-15 -81 -14 -104 -21 -113 -32 -5 -7 -23 -16 -38 -19 -15 -4 -27 -12 -25 -19
1 -7 -8 -32 -19 -57 -21 -45 -38 -114 -34 -137 1 -7 -7 -51 -19 -99 -11 -47
-20 -106 -20 -131 0 -44 -1 -45 -19 -29 -17 16 -18 16 -14 -8 4 -21 0 -26 -21
-32 -36 -9 -36 -50 0 -66 20 -9 24 -17 19 -36 -4 -17 -2 -23 7 -19 9 3 12 22
10 65 -2 39 2 63 9 68 9 5 10 -1 6 -22 -3 -17 -2 -36 2 -43 5 -7 11 17 15 61
4 40 12 79 18 85 6 7 11 35 13 62 1 27 8 56 16 66 64 78 141 121 197 110 20
-4 64 -9 97 -11 213 -13 231 -26 238 -165 3 -73 2 -85 -12 -85 -69 -3 -171
-17 -193 -27 -28 -12 -37 -43 -19 -63 5 -5 6 -30 2 -56 -4 -27 -4 -48 0 -48 4
0 13 -16 20 -35 8 -22 20 -35 31 -35 11 0 18 -7 18 -18 0 -16 -8 -18 -72 -15
-40 2 -88 3 -106 3 -22 -1 -39 6 -51 21 -10 13 -23 19 -29 15 -18 -11 -14 -24
5 -22 19 1 48 -48 38 -64 -11 -19 -38 -11 -32 9 11 42 -10 45 -48 6 -27 -26
-34 -39 -25 -45 7 -4 8 -10 3 -13 -5 -3 -23 3 -41 13 -22 14 -32 16 -36 7 -3
-9 -5 -9 -5 0 -1 6 3 14 9 18 5 3 7 12 3 21 -5 13 -7 13 -22 -1 -16 -14 -19
-11 -40 31 -16 31 -28 44 -38 40 -8 -3 -17 -6 -21 -6 -3 0 3 -7 14 -15 19 -14
19 -14 -2 -15 -12 0 -24 7 -28 15 -3 9 -18 15 -35 15 -18 0 -34 7 -41 18 -8
13 -9 11 -4 -13 4 -16 11 -31 16 -33 4 -2 8 -13 8 -24 0 -15 5 -19 19 -15 13
3 21 -1 24 -14 3 -13 14 -19 31 -19 45 0 63 -30 71 -114 7 -75 8 -76 36 -76
35 0 88 -65 108 -131 7 -24 18 -55 24 -69 6 -14 10 -28 9 -31 0 -3 16 -15 36
-25 41 -22 70 -69 56 -91 -12 -19 -30 -16 -26 4 2 11 -1 14 -12 10 -9 -4 -17
-2 -17 3 -2 15 -5 23 -18 50 l-12 25 6 -25 c6 -24 23 -111 31 -157 4 -21 10
-23 72 -23 l67 0 90 77 c129 111 162 147 233 252 l63 93 -22 24 c-37 39 -6 27
44 -17 35 -30 68 -47 134 -67 92 -29 90 -29 211 0 l52 12 0 139 c0 153 -5 167
-59 167 -38 0 -40 18 -11 75 l21 40 -26 22 c-14 12 -25 26 -25 31 0 6 -11 17
-25 26 -32 21 -32 39 0 60 24 16 24 18 9 41 -9 14 -19 25 -23 24 -3 0 -22 -20
-41 -44 -23 -29 -46 -46 -66 -50 -32 -7 -137 -85 -114 -85 7 0 30 16 51 35 49
44 97 48 127 10 11 -14 28 -25 38 -25 17 -1 74 -42 74 -54 0 -9 -61 -25 -75
-20 -9 4 -15 0 -15 -8 0 -22 -37 -51 -55 -44 -9 3 -24 2 -34 -3 -13 -8 -26 -2
-55 25 -20 19 -43 34 -50 34 -25 0 -34 24 -27 73 6 33 4 53 -5 65 -9 13 -12
54 -11 133 2 113 1 114 -38 199 -52 111 -100 187 -128 201 -12 6 -34 23 -49
37 -23 21 -28 34 -28 74 l0 48 -91 0 -92 0 6 -41z m132 -749 c22 -7 67 -14
100 -14 l60 -1 3 -36 c3 -32 -2 -40 -36 -67 -24 -20 -43 -28 -51 -22 -8 4 -11
12 -7 18 3 6 -9 12 -29 14 -19 2 -36 -1 -39 -7 -2 -5 -7 -1 -11 10 -22 63 -29
75 -51 90 -49 32 -14 40 61 15z m317 -42 c35 -19 73 -57 64 -65 -4 -4 -20 0
-36 9 -17 10 -32 13 -35 7 -13 -20 -25 -7 -25 26 0 40 -1 39 32 23z m-472
-138 c18 -12 2 -12 -25 0 -13 6 -15 9 -5 9 8 0 22 -4 30 -9z m-15 -30 c0 -1
23 -3 52 -4 50 -2 73 -10 61 -21 -5 -6 -56 -16 -90 -18 -19 -1 -26 -17 -8 -17
6 0 10 -7 10 -15 0 -10 -10 -15 -28 -15 -16 0 -32 -3 -36 -7 -3 -4 -14 -8 -24
-9 -9 -2 -18 -8 -20 -13 -4 -12 -16 -1 -50 47 -22 31 -22 52 -1 52 6 0 8 -4 4
-10 -10 -16 33 -50 66 -50 19 0 28 4 23 11 -3 6 0 15 7 20 10 6 9 9 -6 15 -11
4 -26 12 -33 18 -11 8 -11 11 3 16 15 5 70 6 70 0z m-205 -10 c0 -5 -2 -10 -4
-10 -3 0 -8 5 -11 10 -3 6 -1 10 4 10 6 0 11 -4 11 -10z m100 -331 c0 -5 -4
-9 -10 -9 -5 0 -10 7 -10 16 0 8 5 12 10 9 6 -3 10 -10 10 -16z"/>
<path d="M163 1553 c-7 -2 -13 -11 -13 -19 0 -17 1 -17 37 -3 22 8 24 12 13
19 -16 11 -19 11 -37 3z"/>
<path d="M1235 1100 c-3 -5 -2 -10 4 -10 5 0 13 5 16 10 3 6 2 10 -4 10 -5 0
-13 -4 -16 -10z"/>
<path d="M237 1074 c-3 -3 -54 -6 -112 -5 -104 1 -106 1 -115 -25 -18 -47 -12
-115 12 -143 13 -14 16 -20 8 -13 -8 6 -18 12 -22 12 -4 0 -8 -42 -8 -94 0
-71 4 -98 15 -110 19 -19 19 -30 0 -22 -12 4 -15 -3 -15 -37 0 -24 5 -48 11
-54 9 -9 9 -20 0 -44 -7 -20 -11 -124 -11 -285 l0 -254 43 0 c38 0 46 5 90 55
27 31 64 62 83 70 24 10 38 24 46 46 10 30 12 31 24 14 13 -17 19 -16 116 32
57 27 109 57 116 66 12 14 7 18 -40 31 -29 8 -73 18 -98 21 -25 4 -56 14 -70
23 -14 9 -43 16 -65 17 -36 1 -41 4 -51 35 -7 19 -11 36 -10 37 1 2 16 -2 32
-9 42 -15 76 -4 96 31 10 18 28 33 45 37 30 7 63 31 63 46 0 5 -4 7 -9 3 -5
-3 -12 -1 -16 5 -3 5 -11 10 -16 10 -6 0 -8 -4 -5 -8 6 -10 -47 -52 -67 -52
-7 0 -17 4 -22 9 -16 15 -75 24 -75 12 0 -6 8 -11 18 -11 14 0 15 -2 2 -10
-28 -18 -59 -12 -64 13 -15 72 -15 85 0 91 8 3 17 -1 20 -9 7 -17 34 -21 34
-5 0 5 6 7 13 4 8 -3 19 2 26 10 9 11 19 12 35 6 18 -6 23 -5 23 8 2 35 -6 45
-23 28 -13 -14 -17 -14 -30 -2 -8 8 -14 21 -14 29 0 15 -29 26 -82 33 -16 2
-28 -1 -28 -7 0 -5 -4 -7 -10 -4 -5 3 -10 17 -10 31 0 14 -7 39 -16 56 -18 34
-14 140 4 146 6 2 7 12 4 24 -4 18 -2 20 16 16 12 -3 20 -3 19 1 -2 6 8 12 21
10 4 -1 13 -2 21 -3 19 -1 31 -46 34 -124 2 -53 4 -60 15 -45 23 32 34 97 30
171 -5 69 -16 101 -31 86z m-71 -440 c-13 -14 -27 2 -19 22 4 10 8 10 17 1 9
-8 10 -14 2 -23z m-8 -261 c-16 -15 -17 -15 -17 3 1 10 -2 37 -5 59 l-7 40 23
-43 c20 -39 21 -43 6 -59z m-48 -7 c0 -2 -8 -10 -17 -17 -16 -13 -17 -12 -4 4
13 16 21 21 21 13z m125 -38 c17 3 29 -14 15 -23 -6 -4 -5 -16 5 -35 25 -49
17 -77 -14 -48 -11 11 -12 9 -7 -9 8 -25 -12 -42 -25 -22 -5 8 -9 34 -9 58 0
26 -6 52 -16 62 -13 15 -14 20 -2 33 11 13 14 13 26 -2 7 -9 19 -16 27 -14z"/>
<path d="M290 1029 c0 -11 5 -17 10 -14 6 3 10 13 10 21 0 8 -4 14 -10 14 -5
0 -10 -9 -10 -21z"/>
<path d="M532 1009 c-25 -9 -67 -98 -53 -112 5 -5 20 -10 34 -10 19 -2 25 -7
24 -22 -1 -12 8 -24 25 -32 23 -11 38 -11 100 4 l73 18 2 55 c1 30 -1 60 -5
67 -12 20 -166 44 -200 32z"/>
<path d="M1201 404 c0 -11 3 -14 6 -6 3 7 2 16 -1 19 -3 4 -6 -2 -5 -13z"/>
<path d="M1220 382 c0 -5 9 -17 21 -28 21 -19 21 -19 8 9 -12 26 -29 37 -29
19z"/>
</g>
</svg>
